<svg width="50" height="50" viewBox="0 0 50 50" fill="none" xmlns="http://www.w3.org/2000/svg">
<path d="M48.8955 43.8549C49.5647 44.5242 49.9407 45.4319 49.9407 46.3784C49.9407 47.3248 49.5647 48.2325 48.8955 48.9018C48.2262 49.5711 47.3185 49.947 46.372 49.947C45.4256 49.947 44.5178 49.5711 43.8486 48.9018L25 30.0473L6.14546 48.8959C5.4762 49.5651 4.5685 49.9411 3.62202 49.9411C2.67555 49.9411 1.76784 49.5651 1.09859 48.8959C0.42933 48.2266 0.0533447 47.3189 0.0533447 46.3724C0.0533447 45.426 0.42933 44.5183 1.09859 43.849L19.9531 25.0004L1.10452 6.14587C0.435266 5.47661 0.0592824 4.5689 0.0592824 3.62243C0.0592824 2.67596 0.435266 1.76825 1.10452 1.09899C1.77378 0.429735 2.68149 0.0537495 3.62796 0.0537495C4.57443 0.0537495 5.48214 0.429735 6.1514 1.09899L25 19.9535L43.8545 1.09602C44.5238 0.426765 45.4315 0.0507812 46.378 0.0507812C47.3244 0.0507813 48.2321 0.426765 48.9014 1.09602C49.5707 1.76528 49.9466 2.67299 49.9466 3.61946C49.9466 4.56593 49.5707 5.47364 48.9014 6.1429L30.0469 25.0004L48.8955 43.8549Z" fill="#F8F8F8"/>
</svg>
