<svg width="32" height="31" viewBox="0 0 32 31" fill="none" xmlns="http://www.w3.org/2000/svg">
<path d="M11.936 3.62004C13.984 1.41728 17.1936 0 20.8 0C26.9856 0 32 4.16956 32 9.31399C32 12.4016 30.192 15.1383 27.4112 16.8335C27.3419 16.8746 27.2715 16.914 27.2 16.9515V23.2384C27.2 23.5475 27.1049 23.8495 26.9269 24.1058C26.7488 24.3621 26.496 24.561 26.2008 24.6771C25.9055 24.7931 25.5813 24.821 25.2696 24.7572C24.9579 24.6934 24.6729 24.5407 24.4512 24.3188L22.6272 22.4964C24.3376 20.5342 25.344 18.125 25.344 15.5218C25.344 9.20843 19.4272 4.04227 11.936 3.62004Z" fill="#070F26"/>
<path d="M13.416 24.6603L7.5488 30.5282C7.32707 30.7501 7.04211 30.9027 6.73041 30.9665C6.41872 31.0304 6.09448 31.0025 5.79923 30.8864C5.50398 30.7704 5.25116 30.5715 5.07314 30.3151C4.89512 30.0588 4.80001 29.7568 4.8 29.4477V23.1608C4.72852 23.1233 4.65809 23.084 4.5888 23.0428C1.8064 21.3477 0 18.6109 0 15.5233C0 10.3789 5.0144 6.20933 11.2 6.20933C17.3856 6.20933 22.4 10.3789 22.4 15.5233C22.4 19.755 19.0064 23.3284 14.3584 24.4616C14.0469 24.5391 13.7325 24.6054 13.416 24.6603Z" fill="#070F26"/>
</svg>
