<svg width="24" height="24" viewBox="0 0 24 24" fill="none" xmlns="http://www.w3.org/2000/svg">
<g clip-path="url(#clip0_1688_2110)">
<path fill-rule="evenodd" clip-rule="evenodd" d="M18.671 3.20791C18.9574 3.16014 19.2509 3.17532 19.5309 3.25241C19.8109 3.3295 20.0707 3.46665 20.2924 3.65431C20.514 3.84198 20.6921 4.07566 20.8143 4.33912C20.9365 4.60258 20.9999 4.88949 21 5.17991V16.9999C20.9998 17.8804 20.7091 18.7362 20.1729 19.4347C19.6368 20.1331 18.8851 20.6351 18.0346 20.8629C17.1841 21.0906 16.2821 21.0314 15.4687 20.6943C14.6553 20.3572 13.9758 19.7612 13.5356 18.9986C13.0955 18.236 12.9192 17.3495 13.0342 16.4766C13.1492 15.6036 13.5491 14.793 14.1717 14.1704C14.7943 13.5479 15.605 13.1481 16.478 13.0332C17.3509 12.9183 18.2374 13.0947 19 13.5349V9.17991L8.99997 10.8469V17.9999C8.99997 18.0599 8.99497 18.1169 8.98497 18.1739C9.05676 18.9429 8.87219 19.714 8.46002 20.3672C8.04784 21.0203 7.43121 21.5188 6.70619 21.7849C5.98117 22.051 5.18849 22.0699 4.45163 21.8385C3.71478 21.6072 3.07515 21.1386 2.63238 20.5058C2.18962 19.873 1.9686 19.1115 2.00375 18.34C2.0389 17.5684 2.32825 16.8302 2.82673 16.2403C3.3252 15.6504 4.00479 15.2419 4.75963 15.0785C5.51447 14.9151 6.30216 15.0059 6.99997 15.3369V6.84691C6.99991 6.37347 7.16781 5.91536 7.47378 5.55409C7.77976 5.19281 8.20398 4.95179 8.67097 4.87391L18.671 3.20791ZM8.99997 8.81991L19 7.15291V5.17991L8.99997 6.84691V8.81991Z" fill="black"/>
</g>
<defs>
<clipPath id="clip0_1688_2110">
<rect width="24" height="24" fill="white"/>
</clipPath>
</defs>
</svg>
