<svg width="15" height="15" viewBox="0 0 15 15" fill="none" xmlns="http://www.w3.org/2000/svg">
<path d="M0.314703 0.314703C0.414208 0.214947 0.532416 0.1358 0.662555 0.0817982C0.792695 0.0277962 0.93221 0 1.07311 0C1.21401 0 1.35352 0.0277962 1.48366 0.0817982C1.6138 0.1358 1.73201 0.214947 1.83152 0.314703L7.50028 5.98561L13.169 0.314703C13.2686 0.215108 13.3869 0.136104 13.517 0.0822038C13.6471 0.0283032 13.7866 0.000560843 13.9275 0.000560843C14.0683 0.000560843 14.2078 0.0283032 14.3379 0.0822038C14.468 0.136104 14.5863 0.215108 14.6859 0.314703C14.7855 0.414299 14.8645 0.532535 14.9184 0.662663C14.9723 0.79279 15 0.932261 15 1.07311C15 1.21396 14.9723 1.35343 14.9184 1.48356C14.8645 1.61368 14.7855 1.73192 14.6859 1.83152L9.01495 7.50028L14.6859 13.169C14.7855 13.2686 14.8645 13.3869 14.9184 13.517C14.9723 13.6471 15 13.7866 15 13.9275C15 14.0683 14.9723 14.2078 14.9184 14.3379C14.8645 14.468 14.7855 14.5863 14.6859 14.6859C14.5863 14.7855 14.468 14.8645 14.3379 14.9184C14.2078 14.9723 14.0683 15 13.9275 15C13.7866 15 13.6471 14.9723 13.517 14.9184C13.3869 14.8645 13.2686 14.7855 13.169 14.6859L7.50028 9.01495L1.83152 14.6859C1.73192 14.7855 1.61368 14.8645 1.48356 14.9184C1.35343 14.9723 1.21396 15 1.07311 15C0.932261 15 0.79279 14.9723 0.662663 14.9184C0.532535 14.8645 0.414299 14.7855 0.314703 14.6859C0.215108 14.5863 0.136104 14.468 0.0822038 14.3379C0.0283032 14.2078 0.000560843 14.0683 0.000560843 13.9275C0.000560843 13.7866 0.0283032 13.6471 0.0822038 13.517C0.136104 13.3869 0.215108 13.2686 0.314703 13.169L5.98561 7.50028L0.314703 1.83152C0.214947 1.73201 0.1358 1.6138 0.0817982 1.48366C0.0277962 1.35352 0 1.21401 0 1.07311C0 0.93221 0.0277962 0.792695 0.0817982 0.662555C0.1358 0.532416 0.214947 0.414208 0.314703 0.314703Z" fill="black"/>
</svg>
