<svg width="20" height="18" viewBox="0 0 20 18" fill="none" xmlns="http://www.w3.org/2000/svg">
<path d="M14.0024 5C13.4524 5 13.0024 4.55 13.0024 4C13.0024 2.9 13.9024 2 15.0024 2C15.1724 2 15.3324 2 15.5024 2.05C15.1924 2.6 15.0024 3.26 15.0024 4C15.0024 4.55 14.5524 5 14.0024 5ZM2.33244 18C2.59244 18 2.84244 17.9 3.04244 17.71L12.0024 8.75L9.25244 6L0.292442 14.96C-0.0975571 15.35 -0.0975571 16 0.292442 16.37L1.63244 17.71C1.83244 17.91 2.08244 18 2.33244 18ZM14.0024 7C15.6624 7 17.0024 5.66 17.0024 4C17.0024 2.69 18.1624 2 19.0024 2C18.0824 0.780001 16.5024 0 15.0024 0C12.7924 0 11.0024 1.79 11.0024 4C11.0024 5.66 12.3424 7 14.0024 7Z" fill="black"/>
</svg>
