<svg width="16" height="16" viewBox="0 0 16 16" fill="none" xmlns="http://www.w3.org/2000/svg">
<g clip-path="url(#clip0_1706_2216)">
<path d="M15.854 0.14615C15.9232 0.215482 15.9705 0.303624 15.9901 0.399627C16.0097 0.49563 16.0006 0.595263 15.964 0.68615L10.145 15.2331C10.0937 15.3613 10.0081 15.4727 9.89752 15.5553C9.78697 15.6379 9.65577 15.6884 9.51838 15.7012C9.38098 15.714 9.24271 15.6887 9.11879 15.628C8.99486 15.5673 8.89009 15.4736 8.81599 15.3572L5.63799 10.3622L0.642993 7.18415C0.526311 7.11013 0.432344 7.00532 0.371463 6.88128C0.310581 6.75723 0.285151 6.61878 0.297978 6.4812C0.310805 6.34362 0.361391 6.21226 0.444154 6.10161C0.526917 5.99096 0.638639 5.90532 0.766993 5.85415L15.314 0.0371498C15.4049 0.000562027 15.5045 -0.0085177 15.6005 0.0110385C15.6965 0.0305947 15.7847 0.0779249 15.854 0.14715V0.14615ZM6.63599 10.0701L9.39699 14.4081L14.13 2.57615L6.63599 10.0701ZM13.423 1.86915L1.59099 6.60215L5.92999 9.36215L13.423 1.86915Z" fill="black"/>
</g>
<defs>
<clipPath id="clip0_1706_2216">
<rect width="16" height="16" fill="white"/>
</clipPath>
</defs>
</svg>
