<svg width="60" height="52" viewBox="0 0 60 52" fill="none" xmlns="http://www.w3.org/2000/svg">
<path opacity="0.5" d="M57.625 16.9688C57.625 34.5 30 49.375 30 49.375C30 49.375 2.375 34.5 2.375 16.9688C2.375 13.1646 3.88621 9.51616 6.57619 6.82619C9.26616 4.13621 12.9146 2.625 16.7188 2.625C22.7192 2.625 27.8591 5.89484 30 11.125C32.1409 5.89484 37.2808 2.625 43.2812 2.625C47.0854 2.625 50.7338 4.13621 53.4238 6.82619C56.1138 9.51616 57.625 13.1646 57.625 16.9688Z" fill="#F8F8F8"/>
<path d="M43.2812 0.5C37.7961 0.5 32.9936 2.85875 30 6.84578C27.0064 2.85875 22.2039 0.5 16.7188 0.5C12.3525 0.504921 8.16644 2.2416 5.07902 5.32902C1.9916 8.41644 0.254921 12.6025 0.25 16.9688C0.25 35.5625 27.8192 50.6128 28.9933 51.2344C29.3027 51.4008 29.6486 51.488 30 51.488C30.3514 51.488 30.6973 51.4008 31.0067 51.2344C32.1808 50.6128 59.75 35.5625 59.75 16.9688C59.7451 12.6025 58.0084 8.41644 54.921 5.32902C51.8336 2.2416 47.6475 0.504921 43.2812 0.5ZM30 46.9313C25.1497 44.105 4.5 31.2302 4.5 16.9688C4.50422 13.7294 5.7929 10.624 8.08345 8.33345C10.374 6.0429 13.4794 4.75422 16.7188 4.75C21.8852 4.75 26.2228 7.50187 28.0344 11.9219C28.1945 12.3116 28.4668 12.645 28.8168 12.8796C29.1668 13.1142 29.5787 13.2394 30 13.2394C30.4213 13.2394 30.8332 13.1142 31.1832 12.8796C31.5332 12.645 31.8055 12.3116 31.9656 11.9219C33.7772 7.49391 38.1148 4.75 43.2812 4.75C46.5206 4.75422 49.626 6.0429 51.9166 8.33345C54.2071 10.624 55.4958 13.7294 55.5 16.9688C55.5 31.2089 34.845 44.1023 30 46.9313Z" fill="#F8F8F8"/>
</svg>
