<svg width="53" height="60" viewBox="0 0 53 60" fill="none" xmlns="http://www.w3.org/2000/svg">
<g clip-path="url(#clip0_1282_1918)">
<path d="M22.5956 25.5777C24.5989 23.31 27.2954 22.0008 30.1275 21.9207C32.9595 21.8407 35.7104 22.996 37.8111 25.1477L38.2108 25.5777L44.4559 32.6502C46.4899 34.9569 47.6476 38.0717 47.6822 41.3307C47.7169 44.5897 46.6258 47.7351 44.6415 50.0966C42.6572 52.458 39.9367 53.8487 37.0598 53.9722C34.1828 54.0957 31.3771 52.9422 29.2405 50.7577L28.843 50.3277L24.1569 45.0227C23.7609 44.5728 23.5309 43.9691 23.5138 43.3342C23.4967 42.6994 23.6937 42.0809 24.0647 41.6045C24.4358 41.1281 24.9532 40.8294 25.5117 40.7692C26.0702 40.709 26.6281 40.8917 27.0719 41.2802L27.2795 41.4877L31.9656 46.7927C33.1803 48.1759 34.8233 48.9689 36.546 49.0036C38.2686 49.0383 39.9354 48.3119 41.1929 46.9785C42.4503 45.6451 43.1994 43.8096 43.2813 41.8613C43.3632 39.913 42.7714 38.0052 41.6315 36.5427L41.3333 36.1852L35.0882 29.1152C34.473 28.4186 33.7426 27.8661 32.9387 27.4891C32.1349 27.1121 31.2733 26.918 30.4032 26.918C29.5331 26.918 28.6715 27.1121 27.8677 27.4891C27.0638 27.8661 26.3334 28.4186 25.7182 29.1152C25.3039 29.584 24.742 29.8472 24.1562 29.8469C23.5703 29.8467 23.0086 29.583 22.5945 29.1139C22.1805 28.6448 21.9479 28.0087 21.9482 27.3456C21.9484 26.6824 22.1813 26.0465 22.5956 25.5777ZM8.54181 9.6677C10.5451 7.40003 13.2416 6.09077 16.0736 6.01073C18.9057 5.9307 21.6565 7.08601 23.7572 9.23769L24.1569 9.6677L28.8408 14.9752C29.2369 15.4251 29.4668 16.0288 29.4839 16.6637C29.5011 17.2985 29.3041 17.917 28.933 18.3934C28.5619 18.8698 28.0446 19.1685 27.4861 19.2287C26.9275 19.2889 26.3697 19.1062 25.9258 18.7177L25.7182 18.5102L21.0344 13.2077C19.8175 11.8391 18.1792 11.0581 16.4641 11.0291C14.749 11.0001 13.0908 11.7253 11.8383 13.0522C10.5859 14.379 9.83687 16.204 9.74883 18.1433C9.66079 20.0826 10.2406 21.985 11.3663 23.4502L11.6644 23.8102L17.9118 30.8827C19.1541 32.2887 20.8389 33.0786 22.5956 33.0786C24.3524 33.0786 26.0371 32.2887 27.2795 30.8827C27.4845 30.6504 27.728 30.4661 27.9959 30.3404C28.2639 30.2146 28.5511 30.1498 28.8411 30.1497C29.1312 30.1496 29.4184 30.2141 29.6865 30.3397C29.9545 30.4652 30.198 30.6493 30.4032 30.8814C30.6084 31.1136 30.7712 31.3891 30.8823 31.6925C30.9934 31.9958 31.0506 32.3209 31.0507 32.6493C31.0508 32.9777 30.9938 33.3029 30.8829 33.6063C30.772 33.9097 30.6093 34.1854 30.4043 34.4177C28.4011 36.6854 25.7045 37.9946 22.8725 38.0747C20.0405 38.1547 17.2896 36.9994 15.1889 34.8477L14.787 34.4177L8.54181 27.3452C6.47182 25.0011 5.30896 21.8222 5.30896 18.5077C5.30896 15.1931 6.47182 12.0118 8.54181 9.6677Z" fill="#F8F8F8"/>
</g>
<defs>
<clipPath id="clip0_1282_1918">
<rect width="53" height="60" fill="white"/>
</clipPath>
</defs>
</svg>
